inDegrees=no
num_controls=7
num_derivatives=13
num_iterations=32
num_multipliers=7
num_parameters=0
num_slacks=7
num_states=26
objective=0.617349
objective_accelerations=0.111743
objective_balance=0.000929
objective_effort=0.022228
objective_height=0.473241
objective_ligament=0.009208
solver_duration=524.952852
status=Solve_Succeeded
success=true
DataType=double
version=3
OpenSimVersion=4.5
endheader
time	/jointset/ground_pelvis/pelvis_tilt/value	/jointset/ground_pelvis/pelvis_tx/value	/jointset/ground_pelvis/pelvis_ty/value	/jointset/hip_l/hip_flexion_l/value	/jointset/hip_l/hip_adduction_l/value	/jointset/hip_l/hip_rotation_l/value	/jointset/back/lumbar_extension/value	/jointset/patellofemoral_l/patellar_flexion_l/value	/jointset/knee_l/knee_flexion_l/value	/jointset/knee_l/knee_adduction_l/value	/jointset/knee_l/knee_rotation_l/value	/jointset/ankle_l/ankle_angle_l/value	/jointset/subtalar_l/subtalar_angle_l/value	/jointset/ground_pelvis/pelvis_tilt/speed	/jointset/ground_pelvis/pelvis_tx/speed	/jointset/ground_pelvis/pelvis_ty/speed	/jointset/hip_l/hip_flexion_l/speed	/jointset/hip_l/hip_adduction_l/speed	/jointset/hip_l/hip_rotation_l/speed	/jointset/back/lumbar_extension/speed	/jointset/patellofemoral_l/patellar_flexion_l/speed	/jointset/knee_l/knee_flexion_l/speed	/jointset/knee_l/knee_adduction_l/speed	/jointset/knee_l/knee_rotation_l/speed	/jointset/ankle_l/ankle_angle_l/speed	/jointset/subtalar_l/subtalar_angle_l/speed	/forceset/tau_hip_flexion_l	/forceset/tau_hip_adduction_l	/forceset/tau_hip_rotation_l	/forceset/tau_knee_flexion_l	/forceset/tau_ankle_angle_l	/forceset/tau_subtalar_angle_l	/forceset/tau_lumbar_extension	lambda_cid13_p0	lambda_cid13_p1	lambda_cid13_p2	lambda_cid13_p3	lambda_cid13_p4	lambda_cid13_p5	lambda_cid14_p0	/jointset/ground_pelvis/pelvis_tilt/accel	/jointset/ground_pelvis/pelvis_tx/accel	/jointset/ground_pelvis/pelvis_ty/accel	/jointset/hip_l/hip_flexion_l/accel	/jointset/hip_l/hip_adduction_l/accel	/jointset/hip_l/hip_rotation_l/accel	/jointset/back/lumbar_extension/accel	/jointset/patellofemoral_l/patellar_flexion_l/accel	/jointset/knee_l/knee_flexion_l/accel	/jointset/knee_l/knee_adduction_l/accel	/jointset/knee_l/knee_rotation_l/accel	/jointset/ankle_l/ankle_angle_l/accel	/jointset/subtalar_l/subtalar_angle_l/accel	gamma_cid13_p0	gamma_cid13_p1	gamma_cid13_p2	gamma_cid13_p3	gamma_cid13_p4	gamma_cid13_p5	gamma_cid14_p0
0.5	-0.2864187567128638	-0.01034360896710735	0.7081313506992531	1.274323099269811	-0.3440309018232938	0.02516679469346642	-0.4180805452447766	1.166236067598722	1.166236067598751	0.04332158483173464	-0.172657652624701	0.3260863704044909	0.1956289445621991	-0.8987108764881082	-0.2086231569789427	-0.7816589295750377	3.092869207496799	0.03688187518431836	0.6019074103356785	-0.2474052283461436	2.468989579480409	2.468989579480403	0.3683059452929351	-0.03249518813995605	0.4643237209520586	0.2648264396697771	-0.1384561803797097	0.08080549911132917	-0.01198223692665496	-0.2238106621889492	0.04117934028186686	-0.01455936186059493	0.1405840971960916	-14.87361669949094	16.96168903616047	-12.16226538745734	-2.329591981652713	-441.0760611351776	-21.21174533946692	-0.4158712418401681	1.07946319058339	0.7477672300428037	-0.4929867378042694	-2.008557941183055	0.439827678669957	-0.3864083487308724	2.005991572063472	-2.416602891652732	-2.416602891652732	-0.1470474050569077	0.4633866026668513	-1.601977433953116	0.1393458017211137	-2.049847429052277e-07	-3.670948826871309e-06	1.570005101246872e-06	-5.337628970072007e-07	-6.217725232042879e-07	-1.088518559921254e-06	-6.254763210410139e-07
0.51	-0.2953494451300521	-0.01239218158470136	0.7002920102632969	1.305146245278047	-0.3436423841050925	0.03116526982556604	-0.420455806817539	1.190801735780199	1.190801735780144	0.04699388446619922	-0.1729640954419262	0.330648223881117	0.1982801868734196	-0.8872831068686907	-0.2010711319563273	-0.7860280739527827	3.071372090695009	0.04080796933102851	0.5977860268918167	-0.2276865826772704	2.443856138728917	2.443856138728924	0.366065707710222	-0.02881836643111966	0.4479781974855875	0.2653476773942586	-0.1440274703988281	0.08106339966180734	-0.0127335119868403	-0.2284964109275903	0.04113971605298383	-0.01449105527594976	0.144800663376909	-15.25116643538185	17.26777463798541	-12.51906319682307	-2.321466134648292	-446.0407786730354	-21.37082707851969	-0.2182571180580254	1.195934508202411	0.7618525178862231	-0.3818367471198063	-2.278533650631624	0.366944752568536	-0.4258790143072673	1.948876593394155	-2.604777912290414	-2.604777912288612	-0.2763417684565101	0.316309419823056	-1.661338419799633	-0.002279918333727292	-2.035516523270272e-07	-3.277358590744612e-06	1.631050308674182e-06	-4.895123225762829e-07	-5.763254708554976e-07	-7.714561963157676e-07	-6.104220477338873e-07
0.52	-0.3041615557189339	-0.0143646474761669	0.6924143866916908	1.335742771098096	-0.3432150165514412	0.03712235598879915	-0.4226350668277865	1.21510745690508	1.215107456904935	0.05064101575825795	-0.1732344741490936	0.3350445223997203	0.2009344830266557	-0.8749953108259746	-0.19340181175325	-0.7893155567048649	3.047545169855049	0.04465184227362649	0.5936296165642141	-0.2082049158445774	2.417000168161709	2.417000168161728	0.3632722767843776	-0.02528236612903792	0.4312127293468903	0.2654372080729216	-0.1495987604176955	0.0813213002122485	-0.01348478704644671	-0.233182159666197	0.04110009182406265	-0.01442274869137915	0.1490172295579794	-15.62685206291503	17.55877424190984	-12.8565968008615	-2.334416467203972	-450.975261264025	-21.62033723693516	-0.08927757629313278	1.251468475243335	0.7712262661350756	-0.2766544126717539	-2.474518748816944	0.4233834378476145	-0.3934137254789979	1.958595804827472	-2.761108854796024	-2.761108854796025	-0.2576860736830027	0.4352223213159501	-1.685966368398469	0.05300439255746873	-1.962395519069284e-07	-2.837632027317814e-06	1.649844576808014e-06	-4.399597838313993e-07	-5.183034387247599e-07	-4.146809606744222e-07	-5.863539057449159e-07
0.53	-0.3128468990567784	-0.0162600546214093	0.6845092841225255	1.366090043216251	-0.3427492546415391	0.04303703658883267	-0.4246210891669658	1.23913610193088	1.23913610193081	0.05425869926144605	-0.1734700216706063	0.339271035639788	0.2035879340199424	-0.8619557025624948	-0.1856804969426126	-0.7915219292201329	3.021557253334874	0.04849536223059523	0.5891649590960427	-0.1890952210307258	2.388431590534235	2.388431590534254	0.3603097561052964	-0.02190006197925392	0.4140085940946565	0.265181867907392	-0.1548572228736237	0.08144389377423435	-0.01426279560212492	-0.2379735815353685	0.04101051540805812	-0.01450383525814084	0.1528725385567138	-16.03862941827728	17.92401010206427	-13.20943317791718	-2.156649903280268	-455.8174260623013	-21.75330553296666	-0.02996821875039527	1.347803467066327	0.7723693546395708	-0.1652720503834967	-2.713784279679853	0.3639969070039072	-0.494783794923674	1.872805963457312	-2.949204443348335	-2.949204443348456	-0.3092169029319883	0.2790599571426811	-1.749980702365588	-0.07525732749081768	-1.766751981783915e-07	-2.286472783290296e-06	1.61304258165071e-06	-3.756455239133274e-07	-4.445205369093289e-07	-7.317228519039995e-08	-5.351844159650296e-07
